inDegrees=no
num_controls=7
num_derivatives=13
num_iterations=143
num_multipliers=7
num_parameters=0
num_slacks=7
num_states=26
objective=5.161409
objective_accelerations=0.470765
objective_balance=0.046451
objective_effort=0.444353
objective_height=4.158585
objective_ligament=0.041255
solver_duration=1597.944958
status=Solve_Succeeded
success=true
DataType=double
version=3
OpenSimVersion=4.4-2022-07-23-0e9fedc
endheader
time	/jointset/ground_pelvis/pelvis_tilt/value	/jointset/ground_pelvis/pelvis_tx/value	/jointset/ground_pelvis/pelvis_ty/value	/jointset/hip_l/hip_flexion_l/value	/jointset/hip_l/hip_adduction_l/value	/jointset/hip_l/hip_rotation_l/value	/jointset/back/lumbar_extension/value	/jointset/patellofemoral_l/patellar_flexion_l/value	/jointset/knee_l/knee_flexion_l/value	/jointset/knee_l/knee_adduction_l/value	/jointset/knee_l/knee_rotation_l/value	/jointset/ankle_l/ankle_angle_l/value	/jointset/subtalar_l/subtalar_angle_l/value	/jointset/ground_pelvis/pelvis_tilt/speed	/jointset/ground_pelvis/pelvis_tx/speed	/jointset/ground_pelvis/pelvis_ty/speed	/jointset/hip_l/hip_flexion_l/speed	/jointset/hip_l/hip_adduction_l/speed	/jointset/hip_l/hip_rotation_l/speed	/jointset/back/lumbar_extension/speed	/jointset/patellofemoral_l/patellar_flexion_l/speed	/jointset/knee_l/knee_flexion_l/speed	/jointset/knee_l/knee_adduction_l/speed	/jointset/knee_l/knee_rotation_l/speed	/jointset/ankle_l/ankle_angle_l/speed	/jointset/subtalar_l/subtalar_angle_l/speed	/forceset/tau_hip_flexion_l	/forceset/tau_hip_adduction_l	/forceset/tau_hip_rotation_l	/forceset/tau_knee_flexion_l	/forceset/tau_ankle_angle_l	/forceset/tau_subtalar_angle_l	/forceset/tau_lumbar_extension	lambda_cid13_p0	lambda_cid13_p1	lambda_cid13_p2	lambda_cid13_p3	lambda_cid13_p4	lambda_cid13_p5	lambda_cid14_p0	/jointset/ground_pelvis/pelvis_tilt/accel	/jointset/ground_pelvis/pelvis_tx/accel	/jointset/ground_pelvis/pelvis_ty/accel	/jointset/hip_l/hip_flexion_l/accel	/jointset/hip_l/hip_adduction_l/accel	/jointset/hip_l/hip_rotation_l/accel	/jointset/back/lumbar_extension/accel	/jointset/patellofemoral_l/patellar_flexion_l/accel	/jointset/knee_l/knee_flexion_l/accel	/jointset/knee_l/knee_adduction_l/accel	/jointset/knee_l/knee_rotation_l/accel	/jointset/ankle_l/ankle_angle_l/accel	/jointset/subtalar_l/subtalar_angle_l/accel	gamma_cid13_p0	gamma_cid13_p1	gamma_cid13_p2	gamma_cid13_p3	gamma_cid13_p4	gamma_cid13_p5	gamma_cid14_p0
0	-0.1598409622312287	0.05845347601464389	0.8979878724804778	0.3774920279260975	-0.2592958289065505	-0.2702692302537072	-0.0126506700172305	0.03223623128433967	0.03223623128433527	-0.1745329251994329	0.1719498304615661	-0.04231376238535053	-0.009451609493901485	0	0	0	0	0	0	0	0	0	0	0	0	0	0.1320703804762005	-0.06158123232118982	-0.04579808785839164	-0.2670341611052091	0.2438744421363319	-0.03898720069909899	-0.08265328357902955	35.69122161896122	4.059815045482638	6.515453656283362	15.83218372516434	-593.5084807871585	-67.20262802168423	-38.99254634291796	-4.314157477276523	-2.424440656574079	-1.040917735347693	11.67158021042297	-0.9658700588137419	2.239353464577481	-5.577132554154821	6.96420835374808	6.964208353748172	0.04350970522537492	0.1267408869797984	-0.4005531686157159	-1.082918537626678	-3.755504206806829e-09	6.604575015457159e-08	2.564360123842971e-08	-8.666625743436384e-09	7.859337340617249e-08	4.308426002931228e-08	-3.514012861169298e-09
0.01	-0.1600500572913602	0.0583338808142273	0.8979369457539101	0.3780617700879731	-0.2593441514483784	-0.270157525569964	-0.0129302261840191	0.03257636628077631	0.03257636628085434	-0.1745327897391133	0.1719538304976882	-0.04233494741381532	-0.009506035059956104	-0.04161341659793934	-0.02379167140889187	-0.01014576847320191	0.1134045204836106	-0.009620490646987752	0.02226181337139843	-0.0555281021675365	0.06773574522514117	0.06773574522514096	2.508361331481776e-05	0.0007808103314954029	-0.004183920631828083	-0.01082791915457979	0.1272154721686585	-0.07050909165226853	-0.04495829767338677	-0.2625393686704885	0.2372442452539562	-0.0271660906320458	-0.07846194091406203	34.0181853716599	-0.5227874592756133	6.950925401037233	15.66569879367668	-594.4679174853251	-76.08221066216662	-39.00245249531007	-4.054098809636458	-2.337426814966981	-0.9954541586736572	11.0932983068606	-0.9535442455769528	2.207724301003926	-5.483179369350085	6.634570198784467	6.63457019878447	-0.01829003331013353	0.05086994751510933	-0.4193482170591954	-1.07416290592425	-2.003082772581242e-08	8.016882804573609e-08	4.981518835029731e-08	3.509549974792192e-09	-1.500422872834902e-08	4.891110336037368e-08	-7.719693425600979e-09
0.02	-0.1606691195292001	0.05798018961333774	0.8977857517915366	0.3797492395225934	-0.2594873600322628	-0.2698255769469991	-0.01375356943674505	0.03358512124795215	0.03358512124795312	-0.174532462742663	0.1719650624052338	-0.04239637898991779	-0.009667026677866874	-0.08199343553922965	-0.0468192000945933	-0.02005344716118677	0.2235454545484271	-0.01897720841142048	0.04404878784612789	-0.108757417186948	0.1337239941257783	0.13372399412578	3.825831883468661e-05	0.001446374314230687	-0.008049309527370783	-0.0213132103711898	0.1223605638612546	-0.07943695098330615	-0.04411850748919355	-0.2580445762355371	0.2306140483716381	-0.01534498056492876	-0.07427059824903554	32.40545426949637	-5.115141429936192	7.387031043721489	15.46265333381984	-594.4564270931888	-84.88351289868181	-39.03168176593966	-4.067477945946768	-2.271612111935906	-0.9932997783043149	11.01886292666402	-0.9131154823032055	2.144385685243687	-5.117375124529755	6.614709088847286	6.614709088847804	0.04112792366547112	0.1036916172278263	-0.3368468213586558	-1.01439295003318	-3.630615124481802e-08	9.429190593690061e-08	7.398677546216492e-08	1.568572569302077e-08	-1.086018308628705e-07	5.473794669143507e-08	-1.192537399003266e-08
0.03	-0.1616861159014763	0.05739996423143584	0.8975364627417705	0.3825223285224433	-0.2597226746937514	-0.2692784115842981	-0.01509751060117203	0.03524510672750599	0.03524510672749228	-0.1745319578283395	0.1719826323194073	-0.04249498828779725	-0.009931042737786694	-0.1211984087800971	-0.06910434882941192	-0.02978075744162659	0.3305335915503497	-0.02803644925761804	0.06527690838576752	-0.159659635390141	0.1979763665490425	0.1979763665490378	5.156717570483464e-05	0.002071230661961096	-0.01163455874047538	-0.03143085582477519	0.1166803379240148	-0.07440041465648584	-0.04334660781460156	-0.2531215416184298	0.2266428917196546	-0.01740730154383893	-0.06954653288030067	31.09240618023147	-4.091674137719746	7.340488968419468	15.43397270795029	-594.3478627702644	-81.96388480520764	-39.07934556384478	-3.815897312043512	-2.188733949341534	-0.9589279488922817	10.45796903262625	-0.8949471032727427	2.095908615226642	-5.02096812173832	6.285993436480158	6.285993436479138	-0.02022262032438076	0.04241688151137813	-0.363666393810007	-1.001601486413622	-4.71729675965022e-08	9.817996419655319e-08	9.059564740615376e-08	2.478724001137933e-08	-1.810441525362655e-07	5.877568195089779e-08	-1.50372608407817e-08
0.04	-0.163088940065947	0.05660053382316875	0.8971906043300033	0.38634913488141	-0.2600471055071982	-0.268522188340802	-0.01693933853834501	0.03753871435472993	0.03753871435473023	-0.1745316508225838	0.1720065576446919	-0.0426283105623126	-0.01029446548092102	-0.159158993976379	-0.09066020536763154	-0.03936731956134659	0.4342889263791001	-0.03680043880359226	0.08586036400150428	-0.2083347717342984	0.2604484236688695	0.2604484236688596	-1.323448320263489e-06	0.002717456528314928	-0.014991904854528	-0.04119454701406017	0.1110001119864046	-0.06936387832970774	-0.0425747081398688	-0.2481985070015839	0.2226717350675734	-0.01946962252281419	-0.06482246751178176	29.83431792065162	-3.076664797542116	7.293965725692663	15.36678729034389	-593.3670570390912	-78.97019716324439	-39.14452331296752	-3.81860033702965	-2.125753672616059	-0.9651501461603563	10.37230249202953	-0.8540652222586258	2.015452700463113	-4.671958752722578	6.258646028159844	6.25864602816061	0.02788802748626454	0.1079655209525276	-0.2912662015482196	-0.9436020971731708	-5.792826833648903e-08	1.018569911235973e-07	1.070485870786399e-07	3.38253592493282e-08	-2.530502828599466e-07	6.277652838414196e-08	-1.812659524382594e-08
